<svg width="22" height="22" xmlns="http://www.w3.org/2000/svg">
 <defs>
  <style id="current-color-scheme" type="text/css">
   .ColorScheme-Text { color:#232629; } .ColorScheme-Accent { color:#3daee9; } .ColorScheme-NegativeText { color:#da4453; } .ColorScheme-NeutralText { color:#f67400; } .ColorScheme-PositiveText { color:#27ae60; }
  </style>
 </defs>
 <path style="fill:currentColor" class="ColorScheme-Text" d="M11.3 5.002a6.3 6.3 0 0 0-1.644.123 6.2 6.2 0 0 0-2.851 1.432C6.1 7.172 5.693 7.745 5.102 8.95c-.497 1.013-.687 1.323-1.079 1.75-1.13 1.236-1.795 2.373-1.974 3.37a2.2 2.2 0 0 0-.026.77c-.079.503.049.923.434 1.264.533.473 1.473.774 2.727.874.798.063 2.087-.016 3.093-.19A17 17 0 0 0 11 16.08v-1.364a1.683 4.406 63.005 0 1-2.943-.252 1.683 4.406 63.005 0 1 3.277-3.512 1.683 4.406 63.005 0 1 3.39-.951 1.683 4.406 63.005 0 1 1.22.537 1.683 4.406 63.005 0 1 .038.463h2.528c.8-.997 1.289-1.91 1.445-2.697.101-.511.027-1.036-.182-1.27-.452-.484-1.022-.717-1.677-.797a3 3 0 0 0-.159-.015 4.6 4.6 0 0 0-.85-.215c-.257-.04-.818-.067-1.71-.086-1.478-.032-1.366-.259-2.428-.598a6.7 6.7 0 0 0-1.648-.32"/>
 <path style="fill:currentColor" class="ColorScheme-Accent" d="M16.5 12a4.49 4.49 0 0 0-4.5 4.5 4.49 4.49 0 0 0 4.5 4.5 4.49 4.49 0 0 0 4.5-4.5 4.49 4.49 0 0 0-4.5-4.5"/>
 <path fill="#fff" d="M19.017 18.933a3.504 3.5 45 0 0 .93-1.847l-1.015-.003-.001.002a2.5 2.5 0 0 1-.663 1.183 2.5 2.5 0 0 1-3.535 0 2.5 2.5 0 0 1-.663-1.186l-.001-.002-1.023.002A3.504 3.5 45 0 0 16.503 20a3.504 3.5 45 0 0 2.514-1.067m.936-3.016a3.504 3.5 45 0 0-3.457-2.92 3.504 3.5 45 0 0-3.443 2.916l1.015.003.002-.001a2.5 2.5 0 0 1 .663-1.184 2.5 2.5 0 0 1 3.535 0 2.5 2.5 0 0 1 .663 1.186z"/>
</svg>
